<svg width="16" height="16" viewBox="0 0 16 16" fill="none" xmlns="http://www.w3.org/2000/svg">
<g clip-path="url(#clip0_499_628)">
<path fill-rule="evenodd" clip-rule="evenodd" d="M10.4549 2.18801C10.6909 1.95213 11.0068 1.81334 11.3402 1.79902C11.6736 1.7847 12.0002 1.89591 12.2556 2.11067L12.3402 2.18801L12.8116 2.66001C13.0474 2.89591 13.1862 3.21162 13.2006 3.54484C13.215 3.87806 13.1041 4.20459 12.8896 4.46001L12.8122 4.54534L12.3402 5.01667C12.2996 5.05718 12.2564 5.09504 12.2109 5.13001C12.2692 5.33913 12.2756 5.55933 12.2295 5.77148C12.1834 5.98363 12.0861 6.18131 11.9462 6.34734L11.8689 6.43067L11.2089 7.09067C11.6679 7.49692 12.0353 7.99614 12.2867 8.55519C12.538 9.11425 12.6676 9.72037 12.6669 10.3333C12.6669 11.4293 12.2602 12.43 11.5896 13.1933L11.4602 13.3333H13.3336C13.5035 13.3335 13.6669 13.3986 13.7905 13.5152C13.914 13.6319 13.9884 13.7913 13.9984 13.9609C14.0083 14.1306 13.9531 14.2976 13.8441 14.4279C13.735 14.5582 13.5803 14.6419 13.4116 14.662L13.3336 14.6667H2.6669C2.49698 14.6665 2.33355 14.6014 2.20999 14.4848C2.08644 14.3681 2.01208 14.2087 2.00212 14.0391C1.99217 13.8694 2.04735 13.7024 2.15641 13.5721C2.26547 13.4418 2.42017 13.3581 2.5889 13.338L2.6669 13.3333H8.33357C8.93544 13.3334 9.52343 13.1524 10.0211 12.814C10.5188 12.4755 10.9031 11.9951 11.1242 11.4353C11.3453 10.8755 11.3929 10.2622 11.2608 9.67497C11.1287 9.08777 10.8231 8.55388 10.3836 8.14267L10.2636 8.03601L8.09757 10.2027C7.86158 10.4384 7.54583 10.577 7.21261 10.5914C6.87939 10.6057 6.55291 10.4946 6.29757 10.28L6.21224 10.202L4.79824 8.78801C4.56227 8.55207 4.42335 8.23622 4.40891 7.90285C4.39447 7.56947 4.50556 7.2428 4.72024 6.98734L4.79824 6.90267L8.56957 3.13134C8.73655 2.9643 8.9449 2.84461 9.17332 2.78452C9.40173 2.72443 9.64201 2.72609 9.86957 2.78934L9.92424 2.72267L9.98357 2.66001L10.4549 2.18801ZM4.3269 9.26001L5.74024 10.674C5.80395 10.7355 5.85479 10.809 5.88979 10.8903C5.92478 10.9716 5.94324 11.0591 5.94407 11.1476C5.9449 11.2361 5.92809 11.3239 5.89463 11.4059C5.86117 11.4878 5.81172 11.5623 5.74917 11.6249C5.68662 11.6876 5.61222 11.7371 5.53031 11.7707C5.44841 11.8043 5.36063 11.8212 5.27211 11.8205C5.18359 11.8198 5.0961 11.8015 5.01474 11.7666C4.93338 11.7317 4.85978 11.681 4.79824 11.6173L3.38357 10.2027C3.32167 10.1407 3.27258 10.0672 3.2391 9.98629C3.20562 9.90538 3.18841 9.81867 3.18844 9.7311C3.18847 9.64354 3.20575 9.55683 3.23928 9.47595C3.27282 9.39506 3.32196 9.32157 3.3839 9.25967C3.44584 9.19778 3.51937 9.14869 3.60028 9.1152C3.68119 9.08172 3.76791 9.06451 3.85547 9.06454C3.94304 9.06457 4.02974 9.08185 4.11063 9.11538C4.19152 9.14892 4.26501 9.19807 4.3269 9.26001ZM11.3976 3.13201L10.9262 3.60334L11.3976 4.07467L11.8689 3.60334L11.3976 3.13201Z" fill="black"/>
</g>
<defs>
<clipPath id="clip0_499_628">
<rect width="16" height="16" fill="white"/>
</clipPath>
</defs>
</svg>
