<svg width="43" height="43" viewBox="0 0 43 43" fill="none" xmlns="http://www.w3.org/2000/svg">
<g clip-path="url(#clip0_487_623)">
<path fill-rule="evenodd" clip-rule="evenodd" d="M28.0969 5.88025C28.7312 5.24635 29.5802 4.87333 30.4761 4.83485C31.372 4.79638 32.2498 5.09523 32.9362 5.67242L33.1637 5.88025L34.4304 7.14875C35.0641 7.78275 35.4371 8.63121 35.4759 9.52674C35.5147 10.4223 35.2165 11.2998 34.64 11.9863L34.4322 12.2156L33.1637 13.4823C33.0545 13.5912 32.9384 13.6929 32.8161 13.7869C32.9729 14.3489 32.99 14.9407 32.8661 15.5108C32.7421 16.081 32.4808 16.6123 32.1048 17.0585L31.897 17.2824L30.1233 19.0562C31.3569 20.148 32.3442 21.4896 33.0197 22.9921C33.6953 24.4945 34.0436 26.1235 34.0416 27.7708C34.0416 30.7163 32.9487 33.4056 31.1463 35.4571L30.7987 35.8333H35.8333C36.29 35.8338 36.7292 36.0087 37.0613 36.3222C37.3933 36.6357 37.5931 37.0641 37.6199 37.52C37.6467 37.9759 37.4983 38.4248 37.2052 38.775C36.9121 39.1251 36.4964 39.3502 36.0429 39.4041L35.8333 39.4167H7.16663C6.70998 39.4162 6.27074 39.2413 5.93868 38.9278C5.60662 38.6143 5.4068 38.1859 5.38003 37.73C5.35327 37.2741 5.50159 36.8252 5.79469 36.4751C6.08779 36.1249 6.50355 35.8998 6.95701 35.8459L7.16663 35.8333H22.3958C24.0133 35.8335 25.5935 35.3472 26.931 34.4375C28.2685 33.5278 29.3015 32.2369 29.8957 30.7324C30.4898 29.228 30.6177 27.5796 30.2628 26.0015C29.9078 24.4234 29.0863 22.9885 27.9052 21.8834L27.5827 21.5968L21.7616 27.4197C21.1273 28.0531 20.2787 28.4258 19.3832 28.4642C18.4877 28.5027 17.6103 28.2042 16.9241 27.6275L16.6947 27.4179L12.8946 23.6178C12.2604 22.9837 11.8871 22.1348 11.8483 21.2389C11.8095 20.3429 12.108 19.465 12.685 18.7785L12.8946 18.5509L23.0301 8.41546C23.4788 7.96655 24.0388 7.64489 24.6526 7.4834C25.2665 7.3219 25.9122 7.32637 26.5238 7.49634L26.6707 7.31717L26.8302 7.14875L28.0969 5.88025ZM11.6279 24.8863L15.4262 28.6864C15.5975 28.8515 15.7341 29.0491 15.8281 29.2677C15.9222 29.4862 15.9718 29.7212 15.974 29.9591C15.9762 30.197 15.9311 30.433 15.8411 30.6532C15.7512 30.8735 15.6183 31.0736 15.4502 31.242C15.2821 31.4103 15.0822 31.5435 14.862 31.6337C14.6419 31.724 14.406 31.7695 14.1681 31.7676C13.9302 31.7657 13.6951 31.7164 13.4764 31.6227C13.2578 31.5289 13.06 31.3926 12.8946 31.2216L9.09268 27.4197C8.92633 27.2532 8.7944 27.0556 8.70442 26.8382C8.61444 26.6207 8.56817 26.3877 8.56825 26.1523C8.56833 25.917 8.61477 25.684 8.7049 25.4666C8.79504 25.2492 8.92711 25.0517 9.09357 24.8854C9.26004 24.719 9.45764 24.5871 9.67509 24.4971C9.89254 24.4071 10.1256 24.3608 10.3609 24.3609C10.5962 24.361 10.8293 24.4074 11.0466 24.4976C11.264 24.5877 11.4615 24.7198 11.6279 24.8863ZM30.6303 8.41725L29.3636 9.68396L30.6303 10.9507L31.897 9.68396L30.6303 8.41725Z" fill="black"/>
</g>
<defs>
<clipPath id="clip0_487_623">
<rect width="43" height="43" fill="white"/>
</clipPath>
</defs>
</svg>
